<?xml version="1.0" encoding="utf-8"?>
<!-- Generator: Adobe Illustrator 15.0.0, SVG Export Plug-In . SVG Version: 6.00 Build 0)  -->
<!DOCTYPE svg PUBLIC "-//W3C//DTD SVG 1.1//EN" "http://www.w3.org/Graphics/SVG/1.1/DTD/svg11.dtd">
<svg version="1.1" id="Layer_1" xmlns="http://www.w3.org/2000/svg" xmlns:xlink="http://www.w3.org/1999/xlink" x="0px" y="0px"
	 width="130.46px" height="45.804px" viewBox="0 0 130.46 45.804" enable-background="new 0 0 130.46 45.804" xml:space="preserve">
<path fill="#fff" d="M33.547,21.488l4.197-9.81l4.072,9.81H33.547 M39.349,0L25.816,32.227h3.09l3.405-7.962h10.678l3.253,7.962
	h6.233L39.349,0z"/>
<path fill="#fff" d="M64.152,16.367l8.937,15.86h6.665l-8.192-14.439l2.348-1.004c3.123-1.207,5.334-4.182,5.334-7.665
	c0-4.549-3.773-8.239-8.432-8.239H56.857v31.347h6.047V2.916L67.866,2.9c2.896,0,5.552,2.914,5.552,6.464
	c0,3.273-1.996,5.976-4.578,6.378L64.152,16.367"/>
<polyline fill="#fff" points="85.306,0.88 85.306,32.227 104.375,32.227 104.375,29.312 91.862,29.312 91.862,17.218 
	103.525,17.218 103.525,14.625 91.862,14.625 91.862,3.517 104.078,3.517 104.078,0.88 85.306,0.88 "/>
<polyline fill="#fff" points="111.654,0.88 111.654,32.227 130.413,32.227 130.413,29.328 118.273,29.328 118.273,0.88 
	111.654,0.88 "/>
<path fill="#fff" d="M25.546,30.22c-2.63,1.812-5.831,2.875-9.275,2.875C7.287,33.095,0,25.882,0,16.986
	c0-8.898,7.287-16.11,16.271-16.11c3.434,0,6.619,1.055,9.247,2.855l-0.016,3.585c-2.014-3.104-5.805-4.581-9.107-4.155
	c-6.235,0.804-10.37,5.557-9.814,14.627c0.434,8.146,5.986,13.363,12.013,12.878c2.621-0.208,4.461-0.906,6.933-3.082L25.546,30.22"
	/>
<rect x="0.78" y="41.917" fill="#fff" width="86.454" height="3.887"/>
<rect x="89.453" y="41.917" fill="#fff" width="11.852" height="3.887"/>
<rect x="103.338" y="41.917" fill="#fff" width="27.122" height="3.887"/>
</svg>
